<?xml version="1.0" standalone="no"?>
<!DOCTYPE svg PUBLIC "-//W3C//DTD SVG 20010904//EN"
 "http://www.w3.org/TR/2001/REC-SVG-20010904/DTD/svg10.dtd">
<svg version="1.0" xmlns="http://www.w3.org/2000/svg"
 width="32.000000pt" height="32.000000pt" viewBox="0 0 32.000000 32.000000"
 preserveAspectRatio="xMidYMid meet">

<g transform="translate(0.000000,32.000000) scale(0.100000,-0.100000)"
fill="#000000" stroke="none">
<path d="M49 241 c-30 -30 -39 -80 -20 -110 6 -9 2 -20 -10 -32 -24 -24 -25
-49 -1 -49 14 0 15 2 2 10 -13 8 -13 11 2 26 14 15 22 16 43 6 29 -13 64 -15
90 -6 18 7 49 65 59 110 4 17 13 31 21 31 13 0 13 -3 0 -17 -8 -9 -15 -24 -15
-33 0 -26 39 -21 50 6 8 20 9 20 9 -8 0 -16 3 -42 7 -58 12 -49 -6 -57 -130
-59 l-111 -2 109 -3 c136 -5 151 4 141 83 -5 39 -3 54 9 64 20 15 21 36 3 43
-21 8 -34 -5 -42 -40 -3 -19 -13 -33 -21 -33 -18 0 -18 14 1 30 32 27 9 55
-31 38 -14 -7 -20 -19 -21 -45 -1 -41 -23 -72 -23 -32 0 47 -43 76 -84 58 -26
-12 -41 -45 -24 -55 5 -3 12 3 15 14 12 46 73 32 73 -16 0 -37 -17 -52 -57
-52 -28 0 -36 5 -49 33 -19 40 -7 78 32 103 21 15 33 16 65 7 38 -10 56 -2 23
11 -39 15 -86 6 -115 -23z m250 -27 c-14 -18 -24 -11 -15 11 3 9 11 13 16 10
8 -5 7 -11 -1 -21z m-138 -107 c-10 -9 -11 -8 -5 6 3 10 9 15 12 12 3 -3 0
-11 -7 -18z"/>
</g>
</svg>
